<svg width="148" height="50" viewBox="0 0 148 50" fill="none" xmlns="http://www.w3.org/2000/svg" style="fill: none !important;">
            <g clip-path="url(#clip0_9938_35248)" style="fill: none !important;">
            <path d="M0 43.584H1.10859V49.9623H0V43.584Z" fill="black" style="fill: rgb(0, 0, 0) !important;"/>
            <path d="M22.8236 43.584V49.9623H21.9112L18.6195 45.6433V49.9623H17.5195V43.584H18.432L21.7236 47.903V43.584H22.8236Z" fill="black" style="fill: rgb(0, 0, 0) !important;"/>
            <path d="M40.4286 44.5862H38.4502V43.584H43.5157V44.5862H41.5373V49.9623H40.4286V44.5862Z" fill="black" style="fill: rgb(0, 0, 0) !important;"/>
            <path d="M63.6205 48.9691V49.9623H59.1436V43.584H63.5012V44.5772H60.2522V46.2356H63.1344V47.2105H60.2522V48.9691H63.6205Z" fill="black" style="fill: rgb(0, 0, 0) !important;"/>
            <path d="M83.557 49.9623L82.3376 48.0943C82.2865 48.1004 82.2096 48.1034 82.1074 48.1034H80.76V49.9623H79.6514V43.584H82.1074C82.6247 43.584 83.0739 43.675 83.4547 43.8573C83.8413 44.0396 84.1369 44.3008 84.3416 44.6409C84.5463 44.9811 84.6485 45.3851 84.6485 45.8527C84.6485 46.3326 84.5376 46.7457 84.3161 47.092C84.1 47.4383 83.7873 47.6964 83.378 47.8665L84.7509 49.9623H83.557ZM83.5315 45.8527C83.5315 45.4459 83.4063 45.133 83.1562 44.9142C82.9061 44.6956 82.5394 44.5862 82.0562 44.5862H80.76V47.1284H82.0562C82.5394 47.1284 82.9061 47.0192 83.1562 46.8004C83.4063 46.5757 83.5315 46.2597 83.5315 45.8527Z" fill="black" style="fill: rgb(0, 0, 0) !important;"/>
            <path d="M105.989 43.584V49.9623H105.076L101.785 45.6433V49.9623H100.685V43.584H101.597L104.889 47.903V43.584H105.989Z" fill="black" style="fill: rgb(0, 0, 0) !important;"/>
            <path d="M126.861 48.9691V49.9623H122.384V43.584H126.741V44.5772H123.492V46.2356H126.375V47.2105H123.492V48.9691H126.861Z" fill="black" style="fill: rgb(0, 0, 0) !important;"/>
            <path d="M144.103 44.5862H142.125V43.584H147.19V44.5862H145.212V49.9623H144.103V44.5862Z" fill="black" style="fill: rgb(0, 0, 0) !important;"/>
            <path d="M23.1298 31.8891H17.2498V19.5056C17.2498 17.4342 16.7813 15.931 15.8445 14.9958C14.9076 14.0608 13.6319 13.5934 12.019 13.5934C10.2901 13.5934 8.83338 14.1255 7.6528 15.1897C6.47031 16.254 5.88003 17.9664 5.88003 20.3248V31.8891H0V8.80608H5.61916V11.7404C6.56933 10.6476 7.73659 9.83613 9.12089 9.3021C10.5052 8.76997 11.9752 8.50391 13.5309 8.50391C15.3741 8.50391 17.0174 8.8631 18.4589 9.58337C19.9003 10.3018 21.039 11.4097 21.8749 12.9054C22.7108 14.401 23.1279 16.3149 23.1279 18.6448V31.891L23.1298 31.8891Z" fill="black" style="fill: rgb(0, 0, 0) !important;"/>
            <path d="M93.571 31.8891H87.6924V19.5056C87.6924 17.4342 87.2393 15.931 86.3312 14.9958C85.4232 14.0608 84.2353 13.5934 82.7657 13.5934C81.1227 13.5934 79.7616 14.1103 78.6803 15.146C77.601 16.1817 77.0603 17.8637 77.0603 20.1936V31.8872H71.1816V19.5056C71.1816 15.5661 69.5388 13.5952 66.255 13.5952C64.612 13.5952 63.2508 14.1122 62.1696 15.1479C61.0884 16.1838 60.5496 17.8656 60.5496 20.1955V31.8891H54.6709V8.80608H60.2888V11.6967C62.1049 9.56817 64.6101 8.50391 67.8083 8.50391C69.3351 8.50391 70.7763 8.81368 72.1297 9.43133C73.4832 10.0509 74.6217 11.0486 75.5449 12.4303C76.4378 11.252 77.5971 10.3018 79.0249 9.58337C80.4508 8.86499 82.1432 8.50391 84.1039 8.50391C86.0648 8.50391 87.6258 8.84979 89.0535 9.53966C90.4794 10.2295 91.5892 11.3242 92.3812 12.8199C93.1731 14.3155 93.5691 16.2578 93.5691 18.6448V31.891L93.571 31.8891Z" fill="black" style="fill: rgb(0, 0, 0) !important;"/>
            <path d="M106.269 32.954C103.607 32.954 101.527 32.293 100.026 30.9729C98.5256 29.6528 97.7754 27.9385 97.7754 25.8299C97.7754 23.7212 98.5331 21.9775 100.049 20.6868C101.564 19.3961 103.992 18.7489 107.334 18.7489H113.025C113.025 15.2162 111.184 13.4351 107.504 13.4057C106.4 13.4057 105.231 13.5998 104 13.9844C102.769 14.3708 101.671 14.9494 100.707 15.7203L98.5837 11.4442C99.8578 10.4654 101.338 9.72984 103.023 9.23947C104.707 8.74909 106.443 8.50391 108.226 8.50391C115.278 8.50391 118.803 11.9326 118.803 18.792V32.6422H113.366V29.6136C112.063 31.84 109.699 32.954 106.271 32.954H106.269ZM107.586 28.7682C108.69 28.7682 109.753 28.4858 110.773 27.9228C111.792 27.3599 112.542 26.4537 113.023 25.2062V22.4443H107.884C104.911 22.4443 103.424 23.4839 103.424 25.5612C103.424 26.689 103.813 27.5069 104.591 28.011C105.369 28.5171 106.368 28.7682 107.586 28.7682Z" fill="black" style="fill: rgb(0, 0, 0) !important;"/>
            <path d="M133.76 32.9546C131.587 32.9546 129.613 32.4778 127.836 31.5243C126.059 30.571 124.636 29.2008 123.565 27.4102C122.492 25.6215 121.957 23.4354 121.957 20.8542C121.957 18.6546 122.419 16.645 123.344 14.8271C124.269 13.0094 125.603 11.5501 127.351 10.4493C129.097 9.34859 131.234 8.80016 133.758 8.80016C136.958 8.80016 139.438 9.84083 141.2 11.9241V0H147.189V32.6465H141.465V29.6096C139.615 31.8403 137.047 32.9546 133.76 32.9546ZM134.685 27.9818C136.446 27.9818 137.993 27.381 139.33 26.1776C140.667 24.9741 141.334 23.201 141.334 20.8542C141.334 18.889 140.753 17.2166 139.593 15.8388C138.433 14.4609 136.797 13.771 134.683 13.771C132.774 13.771 131.182 14.4027 129.906 15.6624C128.629 16.9239 127.989 18.6546 127.989 20.8542C127.989 22.8483 128.569 24.5362 129.729 25.9141C130.889 27.2939 132.54 27.9818 134.683 27.9818H134.685Z" fill="black" style="fill: rgb(0, 0, 0) !important;"/>
            <path d="M38.2917 11.959C32.5764 11.959 27.9424 16.4196 27.9424 21.9251C27.9424 27.4305 32.5745 31.8912 38.2917 31.8912C44.0089 31.8912 48.6409 27.4305 48.6409 21.9251C48.6409 16.4196 44.0089 11.959 38.2917 11.959ZM38.2917 26.5958C35.6115 26.5958 33.4415 24.5043 33.4415 21.9251C33.4415 19.3459 35.6134 17.2544 38.2917 17.2544C40.97 17.2544 43.1419 19.3459 43.1419 21.9251C43.1419 24.5043 40.97 26.5958 38.2917 26.5958Z" fill="#008061" style="fill: rgb(0, 128, 97) !important;"/>
            <path d="M48.6409 10.0129L46.3085 12.9548C44.1462 11.0051 41.3473 9.82983 38.2917 9.82983C35.2361 9.82983 32.4372 11.0051 30.2747 12.9548L27.9424 10.0129C30.7359 7.49477 34.3465 5.97852 38.2917 5.97852C42.2368 5.97852 45.8457 7.49477 48.6409 10.0129Z" fill="#008061" style="fill: rgb(0, 128, 97) !important;"/>
            <path d="M52.5836 5.29559L50.3522 7.97289C47.0977 5.18127 42.8859 3.50335 38.2918 3.50335C33.6978 3.50335 29.486 5.18311 26.2315 7.97289L24 5.29559C27.8569 1.99321 32.8459 0 38.2918 0C43.7377 0 48.7267 1.99138 52.5836 5.29559Z" fill="#008061" style="fill: rgb(0, 128, 97) !important;"/>
            <path d="M0 37.5957H147.189" stroke="black" stroke-width="1.35036" style="fill: none !important; stroke: rgb(0, 0, 0) !important; stroke-width: 1.35036px !important;"/>
            </g>
            <defs style="fill: none !important;">
            <clipPath id="clip0_9938_35248" style="fill: none !important;">
            <rect width="147.189" height="49.9634" fill="white" style="fill: rgb(255, 255, 255) !important;"/>
            </clipPath>
            </defs>
          </svg>